<svg xmlns="http://www.w3.org/2000/svg" viewBox="0 0 845.8 772.9" enable-background="new 0 0 845.8 772.9" height="127px"><style type="text/css">.st0{fill:#003399;} .st1{fill:#FFFFFF;} .st2{fill:#FF6600;}</style><title>VUB DEF LOGO_Blauw</title><path class="st0" d="M73.1.3h772.4v772.4H73.1z"/><path class="st1" d="M775.7 369.6c26.4-12.6 39.5-40.5 39.5-68.8 0-33.6-21-65.9-50.8-81-30.3-15.1-63.4-13.7-96.1-13.7l-83.8.1v360.5h108.7c34.7-1 71.3-2.9 100.1-23.9 27.8-21 43.9-50.8 43.9-85.9 0-41-22-74.6-61.5-87.3zm-124.1-98.8h30.3c14.2 0 31.2-2.4 43.9 3.4 13.2 5.4 22.5 17.1 22.5 31.7.1 14.1-7.9 26.9-20.5 33.2-12.6 5.9-31.2 5.4-45.4 5.4h-30.8v-73.7zm101.1 218.3c-17.6 11.7-35.7 12.6-55.2 12.6h-46v-92.1H699c16.1 0 32.2-.5 47.3 7.3 15.6 8.8 23.9 19.5 23.9 37.1.1 15.1-5.3 26.8-17.5 35.1z"/><path class="st2" d="M.3 206.2l72.8 187.4V206.2z"/><path class="st1" d="M377.1 206.2V442.5c0 12.9.8 25.7 6.9 37.3 1.1 2.1 2.3 4.1 3.6 6 10.1 13.9 25.5 22.8 42.5 24.7l1.9.2c1.7.1 3.5.2 5.3.2 1.8 0 3.7 0 5.4-.2l2.1-.2c19-2.1 35.9-13.1 45.5-29.7 5.6-11.2 6.9-23.1 7.2-35.5V206.2h66.8v225c0 26.8-1.7 52.5-12.6 75.6-19.8 39.2-60.9 66.7-109.1 68.6-1.8.1-3.7.1-5.5.1-1.8 0-3.7 0-5.5-.1-14.4-.6-28.7-3.5-42.2-8.7-19.1-7.8-36.1-19.8-49.9-35.1-26.3-29.7-29.3-63-29.3-100.5V269.7l-.1.3-114.7 296.6h-55.1l-67.2-173V206.2l94.5 266.9 94.5-266.9h115z"/></svg>
